<svg version="1.1" id="Layer_1" xmlns="http://www.w3.org/2000/svg" xmlns:xlink="http://www.w3.org/1999/xlink" x="0px" y="0px"
	 width="100%" viewBox="0 0 1024 544" enable-background="new 0 0 1024 544" xml:space="preserve">
<path fill="#000000" opacity="1.000000" stroke="none" 
	d="
M745.155396,318.955963 
	C744.746399,343.459015 740.303345,366.731140 732.466553,389.398468 
	C724.679382,411.922150 713.666992,432.695343 697.619446,452.450043 
	C715.758484,447.016144 733.116699,450.427704 750.000000,447.724304 
	C774.293762,443.834381 792.432068,431.112000 804.058350,409.317413 
	C804.192627,409.065796 804.075134,408.679840 804.075134,408.008667 
	C789.961060,411.227386 776.227478,411.399506 764.610168,401.106476 
	C757.818176,395.088684 754.469666,387.088440 753.855896,378.141388 
	C752.579590,359.536133 766.148926,343.100739 782.810181,341.679932 
	C810.573853,339.312256 823.085144,357.022278 824.518005,379.565002 
	C826.481628,378.568329 827.322266,376.854065 828.315247,375.310822 
	C834.465637,365.751953 837.300476,355.015503 839.719482,344.063690 
	C842.516907,331.398346 845.298767,318.702667 851.658142,307.150421 
	C855.758545,299.701752 861.137878,293.487640 868.288940,288.885071 
	C875.982544,283.933319 884.140198,283.217102 892.622009,286.628784 
	C899.189209,289.270325 903.161621,297.306366 900.999207,303.937988 
	C899.893372,307.329285 897.617371,309.526093 893.774048,309.037537 
	C892.937683,307.561859 893.761658,306.807587 894.429626,306.147278 
	C897.177063,303.431122 897.307068,300.351990 895.971863,296.948669 
	C894.514526,293.234100 891.602844,291.562103 887.867310,291.276184 
	C881.938843,290.822388 876.775269,292.643036 872.288818,296.652344 
	C860.277405,307.386230 854.002991,320.944153 852.251831,336.770447 
	C850.720276,350.613098 847.421448,363.910736 840.936340,376.368469 
	C837.192139,383.561066 832.484009,389.914703 826.522705,395.365143 
	C824.910461,396.839203 823.551453,398.310089 823.015198,400.626068 
	C818.467773,420.264282 805.637756,434.001892 790.236084,445.713684 
	C774.125793,457.964294 755.653503,463.006897 735.557495,463.223602 
	C717.681213,463.416351 699.916443,464.735565 683.293335,472.337952 
	C682.112122,472.878143 680.940796,473.439941 678.959106,474.369812 
	C687.244019,476.552368 694.714050,478.647125 700.809021,483.800385 
	C701.348816,484.256805 702.388794,484.386261 703.144043,484.283234 
	C713.369629,482.888306 722.090027,486.778809 730.363037,492.071960 
	C735.078186,495.088715 739.627686,498.364227 745.399963,502.307678 
	C743.043457,495.573303 742.294617,490.059052 742.702332,484.371887 
	C743.578552,472.150299 755.151306,461.398560 767.156128,461.782593 
	C778.942322,462.159607 787.998413,472.436707 788.363342,485.334290 
	C788.711792,497.644775 783.424316,506.404938 772.675110,512.094788 
	C771.831604,512.541260 770.759216,512.742981 770.256226,514.346802 
	C782.726440,521.785767 795.908264,524.860718 810.122437,520.212646 
	C824.229431,515.599670 833.361511,505.488220 838.541199,491.757935 
	C841.991882,493.455597 841.048828,495.529816 840.692017,497.386963 
	C837.042297,516.385620 818.132019,531.663269 797.747925,532.212891 
	C782.965515,532.611389 770.011353,527.529785 758.209473,519.093628 
	C755.972534,517.494629 753.824158,516.476379 751.037659,516.098389 
	C742.871277,514.990479 736.178101,510.550262 729.577332,505.952118 
	C723.470154,501.697754 717.510681,497.041748 709.826782,496.296326 
	C708.155518,497.855865 709.117371,499.421478 709.420654,500.709076 
	C711.333984,508.833008 709.324829,516.284119 705.451172,523.281372 
	C700.235901,532.702209 687.496216,537.437012 677.302307,534.069336 
	C667.342468,530.778992 662.501465,519.057312 666.668091,508.496521 
	C669.143921,502.221252 673.447021,497.499847 678.861511,493.668335 
	C680.475647,492.526123 682.098145,491.395874 684.139404,489.963684 
	C676.011719,485.079193 667.584595,486.190765 659.214600,486.662079 
	C650.504944,487.152496 643.117798,491.874786 634.951172,494.012085 
	C628.243774,495.767548 622.316467,498.598389 616.852966,502.886475 
	C597.199890,518.311340 574.876221,520.827454 551.100220,516.089844 
	C546.133179,515.100159 541.562500,513.197632 537.120422,510.917786 
	C535.277344,509.971802 534.075195,509.901123 532.351257,511.506470 
	C516.097961,526.642029 501.628815,527.719299 483.555389,515.039551 
	C481.231171,513.408936 479.539551,513.372437 477.238983,514.514404 
	C457.863983,524.131775 438.423370,522.286682 419.332428,513.993469 
	C411.366608,510.532990 404.944092,504.426758 398.823456,498.244598 
	C396.490234,495.887939 393.981201,494.577667 390.598297,493.525543 
	C379.036346,489.929535 367.244934,486.657227 356.669952,480.458466 
	C351.325500,477.325684 345.972717,478.635254 340.716888,480.176208 
	C335.302795,481.763580 330.135345,484.194855 324.717865,485.767242 
	C306.455017,491.067902 288.435791,489.916016 271.046753,482.367432 
	C266.720184,480.489319 264.716370,481.351440 262.151611,484.826141 
	C256.564423,492.395599 249.433289,498.328979 241.533829,503.505463 
	C227.891586,512.445129 199.070663,511.734955 185.954163,499.490570 
	C184.629425,498.253937 183.129608,497.204865 181.352463,495.781586 
	C174.685181,504.655426 165.734940,509.606110 155.117340,511.818695 
	C135.592911,515.887390 116.119270,500.502289 116.756973,481.441345 
	C117.060844,472.358643 121.631874,465.623413 129.077454,463.287628 
	C134.019699,461.737152 138.336197,464.050354 139.654144,469.049133 
	C139.172684,469.119385 138.666092,469.339966 138.241150,469.233795 
	C128.611282,466.827759 123.522583,471.372650 124.854553,481.220856 
	C127.307610,499.358093 144.720718,507.988708 160.708069,498.953461 
	C162.878510,497.726837 164.965408,496.327881 166.983719,494.861084 
	C173.423492,490.181061 173.788193,488.802338 171.167572,481.444397 
	C170.216583,478.774292 169.569107,476.071747 170.309586,473.136841 
	C171.759674,467.389435 175.454605,463.960815 180.187271,464.266663 
	C184.570419,464.549927 188.617615,468.920837 189.182220,474.242767 
	C189.462631,476.885956 189.613220,479.632111 188.586395,482.155212 
	C187.019257,486.006012 188.792023,488.326233 191.693344,490.574646 
	C203.182602,499.478485 221.497681,500.900360 234.135437,493.606720 
	C242.631729,488.703186 249.435715,481.976410 255.130402,473.747559 
	C251.721161,470.777039 248.487549,467.959381 245.253754,465.141907 
	C238.515457,459.271118 233.056747,452.379120 229.029770,444.407257 
	C227.799347,441.971527 226.236343,440.621246 223.413254,440.167419 
	C215.703735,438.928162 208.926971,435.655518 202.819534,430.654663 
	C191.252945,421.183868 188.376358,405.643341 196.298706,392.979980 
	C199.754410,387.456238 204.017273,382.561249 208.431442,377.766907 
	C213.693405,372.051819 218.063599,365.861176 217.753021,357.464752 
	C217.400299,347.929413 209.384705,339.175079 199.929703,338.289978 
	C191.003296,337.454346 186.854034,342.317596 189.012024,351.056458 
	C189.199631,351.816223 189.204391,352.621094 189.336090,353.772095 
	C185.191757,353.502960 184.125900,350.896332 183.763855,347.837616 
	C182.922607,340.730286 188.090607,334.509552 196.165817,332.752838 
	C214.107635,328.849609 230.592270,345.077209 227.865143,363.734406 
	C226.609360,372.325592 221.628326,378.614044 216.154999,384.758820 
	C211.297516,390.212158 206.183472,395.379028 204.553192,403.059692 
	C202.478058,412.836243 213.791016,428.433838 222.697861,428.587280 
	C220.399872,420.465576 219.140778,412.305115 219.700027,403.955200 
	C220.181976,396.759979 222.328201,390.161224 227.316528,384.857880 
	C237.178497,374.373169 253.201752,375.140778 263.662598,386.320038 
	C277.100708,400.681000 281.539368,417.866882 279.703003,437.018982 
	C278.700195,447.477386 277.105103,457.821259 272.318054,467.293671 
	C286.193604,476.134064 315.604034,478.173401 332.875854,465.274841 
	C326.741974,459.389679 320.516083,453.659973 315.099060,447.150299 
	C298.001343,426.603607 284.057556,404.263916 276.308533,378.463562 
	C272.178070,364.710999 270.181946,350.530853 268.767059,336.285126 
	C267.897125,327.526520 266.853699,318.718597 266.951843,309.944702 
	C267.140076,293.110992 270.002411,276.573425 273.112183,260.019836 
	C274.636169,251.907410 278.037048,244.995651 281.566254,237.909912 
	C283.068146,234.894440 284.021576,231.725906 284.580383,228.434692 
	C284.770935,227.312668 284.908295,226.004608 283.697205,225.274094 
	C282.188843,224.364334 281.238922,225.505432 280.240845,226.389709 
	C277.187927,229.094513 276.128632,232.788239 275.320587,236.550949 
	C273.079010,246.989044 270.883179,257.462769 264.896851,266.558624 
	C261.488617,271.737213 258.576080,277.544891 250.512253,276.836273 
	C248.300797,276.641968 245.867783,279.180237 243.508957,280.411926 
	C236.312759,284.169525 223.802582,282.740204 218.089554,277.389008 
	C217.055023,276.420013 216.510208,274.928131 215.506149,273.299438 
	C207.387756,275.326752 199.256119,273.503448 191.001938,272.597351 
	C182.913269,271.709381 175.148560,273.843414 168.228622,278.469818 
	C166.657867,279.519958 165.044174,281.510040 162.926559,279.907654 
	C161.080872,278.510986 161.515610,276.219055 161.928833,274.302856 
	C164.405441,262.817810 164.151459,251.120468 164.594727,239.495529 
	C164.871246,232.243057 167.143784,225.435715 168.290771,218.388992 
	C168.862259,214.877930 169.475143,211.441757 166.135147,208.771637 
	C164.435287,207.412704 164.816055,205.568726 165.320328,203.709198 
	C167.201477,196.772354 171.321869,191.151031 175.736877,185.687225 
	C179.910355,180.522308 185.064636,176.312500 189.335129,171.165039 
	C193.841324,165.733475 201.268494,165.842224 207.821365,164.851547 
	C213.086319,164.055588 218.424866,163.639145 223.393204,161.548080 
	C225.313095,160.740036 227.622299,160.228897 228.158554,157.399460 
	C224.940475,153.859055 220.897614,155.069183 217.090652,155.757446 
	C213.328995,156.437500 209.685074,157.119476 205.757248,156.973938 
	C195.824112,156.605804 191.812866,148.988464 187.168228,142.346436 
	C182.776016,136.065384 178.647339,129.612656 173.579559,123.832825 
	C171.255157,121.181786 171.200516,119.075005 174.566879,116.992249 
	C182.216034,112.259735 189.459061,106.940102 196.232361,100.994202 
	C199.180222,98.406448 202.779053,96.546776 203.345932,91.891388 
	C203.616943,89.665794 206.194321,88.771957 208.125244,87.813469 
	C215.004776,84.398529 222.119125,81.579300 229.582520,79.708313 
	C231.873505,79.133987 233.869766,78.521294 235.121323,76.053474 
	C236.749313,72.843346 240.274185,72.438507 243.369766,72.206795 
	C251.622116,71.589073 259.940765,70.644493 268.098755,73.816772 
	C268.324890,71.649696 266.904175,70.273567 266.340881,68.619202 
	C265.513184,66.188164 264.405426,63.108986 266.034546,61.415497 
	C270.502319,56.771229 269.682068,50.974461 270.480896,45.544868 
	C271.086517,41.428490 273.024719,40.203857 277.191162,40.124489 
	C286.942749,39.938736 296.770020,40.806038 306.417755,38.100899 
	C310.515778,36.951855 314.543701,39.219688 318.590607,40.074657 
	C324.063843,41.230965 328.792419,45.657139 335.144684,43.365829 
	C336.939880,42.718277 339.031250,44.811081 340.826477,46.075565 
	C345.931030,49.671001 348.769470,55.625229 354.776886,58.496754 
	C357.726318,59.906574 358.817322,64.052216 359.273438,67.634171 
	C359.756653,71.428665 360.546265,75.200432 360.124695,79.069046 
	C359.997955,80.232040 359.907043,81.587029 360.901733,82.349319 
	C365.003906,85.493011 363.352722,89.085442 361.818451,92.651833 
	C358.931946,99.361404 354.314606,104.778625 349.088959,109.780281 
	C345.227844,113.475914 341.987305,117.615883 340.985626,124.438141 
	C346.744293,120.554817 351.741211,117.469734 356.430176,113.971771 
	C372.900055,101.685181 391.170410,93.486778 411.490540,90.541840 
	C438.272949,86.660339 462.510651,91.891975 481.972900,112.226616 
	C482.534515,112.813416 483.201782,113.299080 484.379303,114.314323 
	C485.468658,110.834457 486.572540,107.802948 487.366272,104.692299 
	C492.371521,85.076698 503.033142,68.858948 517.000427,54.514004 
	C520.026672,51.405910 523.584290,51.836700 527.172668,51.612984 
	C538.786011,50.888954 546.179688,55.159134 551.278503,65.490730 
	C552.571594,68.110992 551.597839,70.235001 550.061218,72.417496 
	C542.393921,83.307716 537.498291,95.395531 534.841553,108.512093 
	C541.017395,99.663033 548.337830,91.892914 556.435913,84.882103 
	C567.683716,75.144501 580.034180,67.379997 595.200134,65.635353 
	C599.138489,65.182304 602.279602,64.021225 605.511230,61.682682 
	C628.212524,45.255341 651.937256,44.575985 676.365112,57.699852 
	C678.099060,58.631420 679.640137,60.173672 681.867126,59.423340 
	C697.976746,53.995701 711.924622,59.999489 725.531311,67.702499 
	C731.074219,70.840446 736.769043,73.495926 743.154663,74.417038 
	C750.664490,75.500313 757.081665,72.468796 760.906128,65.945648 
	C764.581848,59.676189 763.145447,54.873711 755.126953,47.278141 
	C758.031128,45.989662 760.011230,47.592915 761.842163,49.066647 
	C768.133118,54.130173 769.164062,64.011841 764.269592,71.280876 
	C758.413513,79.978073 746.522339,83.884621 734.344604,81.009369 
	C728.976685,79.741936 723.922241,77.784081 719.198914,74.761421 
	C711.411194,69.777733 703.169006,65.832733 693.520020,66.367378 
	C691.539124,66.477135 689.506226,66.356590 687.692871,68.231239 
	C689.579834,73.881683 691.837524,79.563568 691.397339,85.936081 
	C690.443665,99.742355 676.266907,109.765404 663.658752,105.265503 
	C656.109375,102.571098 650.859436,92.980446 652.452332,85.072021 
	C654.157959,76.603714 659.408325,70.578316 666.052612,65.458237 
	C653.516846,56.894119 631.231018,58.028164 616.294922,68.308578 
	C622.357727,71.557266 625.640991,76.818138 627.954712,82.703773 
	C632.570374,94.444908 625.896240,109.575188 614.373474,113.733368 
	C599.183167,119.215073 585.146973,107.932510 587.069458,91.843735 
	C587.558960,87.746933 588.879395,83.847435 590.492065,78.669601 
	C569.933838,87.191154 554.261414,99.318161 543.372864,118.352829 
	C549.323792,118.809875 554.566895,119.149483 559.797607,119.625832 
	C577.200073,121.210655 592.753113,127.172218 605.602112,139.320663 
	C607.021790,140.662933 608.574219,140.612656 610.211670,140.670853 
	C627.917847,141.300095 644.878845,144.907516 660.490906,153.591385 
	C699.646973,175.371078 727.213135,206.315933 738.487183,250.697372 
	C744.163574,273.043274 746.083557,295.565765 745.155396,318.955963 
M537.943176,147.987778 
	C537.943176,147.987778 538.237732,148.267059 538.356689,148.918625 
	C540.252869,153.371506 543.082092,157.198349 546.328491,161.315247 
	C560.573364,147.029892 579.218323,143.982346 597.968567,140.286194 
	C584.173828,129.087265 569.347473,124.263985 549.112976,124.122353 
	C538.949463,124.051208 532.980042,132.012238 535.727905,142.036636 
	C536.255127,143.959717 536.999084,145.823349 537.943176,147.987778 
M626.288513,191.214691 
	C620.918274,185.698059 615.030212,180.858856 608.306641,177.037689 
	C591.881287,167.702789 574.400574,163.143494 555.580627,166.476608 
	C544.988220,168.352570 535.112244,172.071228 529.372681,182.487045 
	C527.535339,185.821442 527.360962,188.216156 529.662781,191.460831 
	C540.658142,206.960037 546.287415,224.709274 550.241638,243.025665 
	C554.836121,264.307617 558.475403,285.737976 560.702637,307.439117 
	C562.530029,325.243744 562.954651,343.065308 561.796265,360.818848 
	C560.293335,383.852112 557.119141,406.758026 554.557678,429.708130 
	C551.902161,453.500549 547.455261,476.753082 538.862915,499.067596 
	C536.782654,504.470123 538.655090,506.308868 543.002869,507.851105 
	C565.181946,515.718384 586.905457,515.184998 607.412231,503.048645 
	C628.964478,490.293579 642.600586,470.360138 653.830261,448.705811 
	C660.361572,436.111420 664.102234,422.400757 667.934021,408.766510 
	C674.540466,385.259003 678.202026,361.349884 678.353699,336.922119 
	C678.503662,312.766602 674.062561,289.327454 667.667419,266.131195 
	C659.923767,238.043655 647.496216,212.630188 626.288513,191.214691 
M429.302002,317.495667 
	C428.714539,333.665497 429.997955,349.797455 431.778351,365.792480 
	C434.186951,387.431641 438.565826,408.761047 445.148499,429.622528 
	C453.948578,457.511169 467.014282,483.248657 484.011993,506.894531 
	C494.917755,522.065796 518.241760,521.546448 529.302185,506.649536 
	C536.124451,497.460785 538.175049,486.324921 541.745911,475.832855 
	C546.869019,460.779785 548.207825,445.010925 550.380554,429.365509 
	C553.514404,406.798187 556.279053,384.173645 557.442322,361.459595 
	C558.839478,334.179230 557.627136,306.926147 552.748291,279.902283 
	C548.844238,258.277710 545.316223,236.589630 537.205200,216.018875 
	C533.842712,207.491104 530.141968,198.937195 523.930542,192.133514 
	C510.946014,177.910782 488.762543,179.167709 475.807892,185.678070 
	C464.159729,191.531830 457.481750,202.044342 451.819336,213.006424 
	C435.069946,245.432175 427.055206,279.881836 429.302002,317.495667 
M427.578522,367.781189 
	C425.902405,354.249176 425.072845,340.641724 424.909973,327.030396 
	C424.772858,315.570618 423.512939,304.094116 424.750824,292.642792 
	C425.518402,285.541931 426.568909,278.465820 427.690674,271.410126 
	C431.521423,247.315979 439.344604,224.641769 452.044556,203.731461 
	C457.166077,195.298981 463.662689,188.037064 471.455627,181.764053 
	C460.648315,170.194672 447.792664,166.779572 433.003052,169.381485 
	C430.215027,169.871979 429.099274,171.388351 429.236115,174.235596 
	C429.393372,177.509216 429.908356,180.986191 426.352051,183.185776 
	C425.829742,183.508820 425.462524,184.724579 425.612671,185.395462 
	C427.478424,193.733292 425.229980,201.995178 425.226074,210.294617 
	C425.219696,223.904434 424.053650,224.695480 410.315125,222.612289 
	C407.785248,222.228668 404.774292,220.649780 402.575745,222.562332 
	C397.008423,227.405411 392.092773,224.750717 387.025909,221.898224 
	C384.391388,220.415070 382.318420,217.741531 378.634491,217.723938 
	C377.545349,222.593124 378.357452,227.204712 378.763977,231.795395 
	C379.349030,238.402679 375.174255,247.791321 369.963867,249.581131 
	C366.804352,250.666473 365.697693,252.715942 364.341003,255.252060 
	C360.988953,261.518097 357.952362,268.273804 349.489136,269.145081 
	C347.961884,269.302307 347.813324,270.679291 347.540894,271.729065 
	C345.283020,280.429901 343.131378,289.226044 342.439514,298.153656 
	C340.949585,317.379425 339.206238,336.619293 341.255829,355.958954 
	C342.762939,370.179596 344.157837,384.453339 347.940582,398.234924 
	C356.744293,430.309235 372.231964,459.038513 393.156708,484.828552 
	C409.979797,505.563202 430.616272,518.128967 458.550812,514.719299 
	C465.352234,513.889160 471.881439,512.513855 477.682739,508.128052 
	C471.181305,496.089935 464.062134,484.868103 457.902802,473.083374 
	C440.759277,440.282410 432.256378,405.069489 427.578522,367.781189 
M693.651489,449.158447 
	C707.268799,433.324585 717.131409,415.309265 724.776794,395.965942 
	C735.945740,367.707825 740.135864,338.353149 740.247314,308.061035 
	C740.336487,283.816406 737.284851,260.250397 729.236450,237.433228 
	C718.844666,207.972687 699.582520,185.470978 674.198120,167.642899 
	C644.460999,146.757812 612.256653,140.243790 577.070374,149.691711 
	C569.577271,151.703690 562.384277,154.658554 555.209045,160.560089 
	C575.894104,158.026215 593.836243,162.916245 610.356750,172.589325 
	C630.321045,184.278839 644.294006,202.034271 655.294067,221.828888 
	C666.839600,242.605087 673.313538,265.413330 678.114990,288.635773 
	C683.793762,316.102234 683.784973,343.746429 680.571655,371.497406 
	C678.822449,386.603516 674.758789,401.172577 670.817749,415.782928 
	C663.792419,441.827545 652.819885,465.838806 634.718506,486.209930 
	C634.059265,486.951935 632.778137,487.618103 633.447388,489.090179 
	C657.061401,481.482391 676.764038,468.073303 693.651489,449.158447 
M283.337341,311.493408 
	C283.555145,316.967804 283.331818,322.426727 283.901581,327.931152 
	C284.420135,332.940338 287.514587,338.065216 284.803833,343.733002 
	C282.263763,341.745178 282.309814,339.462372 281.901581,337.399414 
	C278.270721,319.051361 279.647675,300.642151 281.323639,282.237305 
	C281.446075,280.892883 281.861450,279.515259 280.913391,278.411469 
	C278.336945,275.411804 277.514923,271.696930 276.559174,267.610687 
	C273.139343,283.389313 271.081635,298.933167 271.572144,314.575806 
	C272.003540,328.333832 273.693756,342.053101 276.210541,355.650391 
	C284.592346,400.934875 306.679871,437.910645 343.179779,466.036011 
	C356.099731,475.991669 370.849640,482.360291 387.594421,486.200775 
	C386.092102,484.261230 385.084290,482.978516 384.095734,481.681122 
	C368.226410,460.853577 355.811859,438.155487 347.628937,413.260162 
	C334.965454,374.733337 333.584412,335.285187 338.546478,295.379852 
	C339.306000,289.271545 340.279510,283.189850 341.235107,276.531097 
	C337.881409,278.569183 335.477600,280.877655 332.247894,281.242798 
	C327.628967,281.764984 323.781036,283.985535 319.792480,286.087158 
	C313.137543,289.593781 307.066010,293.981567 300.812897,298.100250 
	C294.547028,302.227356 292.946686,301.637421 290.489197,294.598053 
	C289.101379,290.622742 288.516968,286.270050 285.167603,282.244507 
	C283.083710,292.069885 283.303650,301.290375 283.337341,311.493408 
M259.380768,222.714539 
	C253.722412,241.045334 249.355164,259.975861 235.476624,274.507324 
	C242.064148,262.418701 248.327713,250.220444 251.593002,236.287399 
	C243.868927,240.592880 239.558838,247.556992 234.463852,254.246918 
	C233.241364,251.688293 234.577454,250.582901 235.271790,249.375580 
	C238.550430,243.674850 242.741943,238.627609 248.041443,234.824280 
	C252.428604,231.675705 254.564529,227.652359 255.938156,222.630066 
	C260.345367,206.516357 261.966003,189.585922 270.854156,173.343353 
	C262.264557,180.080490 255.026001,186.181595 247.356323,191.681442 
	C233.312866,201.751846 224.311615,214.866486 221.116531,231.974655 
	C220.231613,236.713043 218.260834,241.241150 215.883682,245.442520 
	C212.953445,250.621368 209.537476,255.508759 204.753662,259.310760 
	C207.796158,251.694824 213.298615,245.507355 215.821259,237.711426 
	C218.312836,230.011536 219.476898,221.929214 222.887405,214.487885 
	C204.735886,231.920914 186.663040,249.259247 171.734985,270.425598 
	C179.222290,268.656006 185.932373,266.226776 193.007965,267.710632 
	C200.560333,269.294434 208.088776,270.145691 215.733719,268.463379 
	C217.885300,267.989899 219.645691,268.568787 220.888229,270.541199 
	C225.027222,277.111420 234.098618,279.628479 241.233490,276.247253 
	C245.823364,274.072113 249.757980,270.391602 255.350494,270.490173 
	C256.848999,270.516602 257.692688,268.827881 258.584229,267.593719 
	C264.667603,259.172760 267.988129,249.654465 269.670013,239.520309 
	C270.555481,234.184906 272.065552,229.095932 275.214355,224.684006 
	C277.647186,221.275253 280.901642,218.475967 285.347015,220.448700 
	C289.590424,222.331818 290.320404,226.223480 289.479645,230.611267 
	C288.262909,236.961151 284.762238,242.310928 282.196777,248.071747 
	C281.462402,249.720795 279.717377,251.554047 280.652588,253.146179 
	C282.985718,257.118164 281.712616,261.263214 282.054901,265.330261 
	C282.415375,269.613373 282.945953,273.682831 287.145416,276.613342 
	C290.260742,278.787292 291.674194,282.700378 293.028137,286.317444 
	C293.972076,288.839111 294.897369,291.367767 295.956818,294.233612 
	C306.894806,267.856720 316.975769,241.922607 319.792114,212.507706 
	C313.417786,221.173325 307.791077,228.755463 302.237762,236.390991 
	C296.708801,243.993042 294.306152,253.337509 289.011627,261.515472 
	C288.502411,260.622894 288.220612,260.350494 288.218048,260.075531 
	C288.213562,259.590851 288.325897,259.086670 288.481781,258.621643 
	C292.043579,247.997162 296.267548,237.726654 303.398743,228.863754 
	C307.258698,224.066498 310.744415,218.970169 314.507172,214.092255 
	C324.225494,201.493698 321.160431,186.397034 323.687225,171.287354 
	C312.460663,179.255966 307.252228,190.391159 300.702759,200.543533 
	C300.061920,197.990463 300.967285,196.072586 301.829651,194.127686 
	C306.017181,184.683533 312.119171,176.656342 319.781921,169.777451 
	C321.893890,167.881516 324.062744,166.013306 325.059814,163.239395 
	C327.961334,155.167603 330.143982,146.850815 333.935089,138.556610 
	C325.195984,140.903854 318.278687,145.813858 310.539520,148.694855 
	C302.310394,151.758255 299.238831,157.824646 298.364899,165.804779 
	C298.039215,168.778534 297.810974,171.790955 297.137817,174.692856 
	C295.700195,180.890442 294.038086,187.043808 289.415283,191.992661 
	C293.694916,180.783707 294.717957,169.065735 296.442139,157.221313 
	C282.308960,163.622208 272.678375,173.354477 268.198059,188.078369 
	C264.800110,199.245178 262.817505,210.739868 259.380768,222.714539 
M324.340424,135.797058 
	C326.273499,134.639481 328.844788,134.666122 330.645325,132.421494 
	C324.882812,130.965561 319.384583,129.694092 313.962677,128.153946 
	C311.470215,127.445938 309.519226,127.897316 307.434143,129.327881 
	C302.593201,132.649170 297.265106,135.000427 291.584076,136.495972 
	C289.978210,136.918716 288.169617,137.926605 286.520874,135.465118 
	C293.328308,133.129684 299.947845,131.075928 305.606628,126.589462 
	C290.409424,120.189743 281.822296,120.828819 268.560028,129.126862 
	C259.932922,134.524719 251.149918,139.615311 241.312393,142.563080 
	C239.401184,143.135742 237.492447,143.903107 235.347580,142.430008 
	C250.083954,137.566391 262.685211,129.154938 275.895935,120.263023 
	C265.572968,118.587456 255.921371,119.178108 246.285629,119.243317 
	C241.395935,119.276405 237.287323,120.796272 233.616699,124.169563 
	C227.537598,129.756271 220.416656,133.773529 212.583267,136.363708 
	C208.955811,137.563171 205.302719,139.193329 200.054688,138.399246 
	C206.067200,134.915085 212.053726,134.623322 217.094406,131.872467 
	C222.290344,129.036911 227.056686,125.703888 231.363113,121.408943 
	C214.317398,123.641174 197.480957,126.318214 179.571747,123.314247 
	C180.691452,125.002739 181.107300,125.919662 181.772827,126.587967 
	C187.530319,132.369476 191.963913,139.369171 196.640335,145.830719 
	C202.027771,153.274734 207.955490,151.699890 214.464417,151.393204 
	C216.588562,151.293106 218.666016,150.395996 220.785995,149.968277 
	C224.006775,149.318451 227.120758,149.682922 229.923615,151.478668 
	C234.876831,154.652100 235.247986,158.903366 230.974426,162.902328 
	C227.404663,166.242737 222.914642,167.474411 218.279297,168.258759 
	C212.048523,169.313080 205.797379,170.246994 199.555328,171.234802 
	C197.187241,171.609543 194.872864,172.333374 193.568634,174.432938 
	C191.844528,177.208481 189.312164,179.046783 186.935547,181.131454 
	C180.486435,186.788300 175.144562,193.338425 171.468506,201.156937 
	C170.688522,202.815842 169.654602,204.448868 171.106308,206.259705 
	C174.523392,210.522141 174.220215,215.766068 172.870056,220.148117 
	C168.010986,235.918701 170.091583,252.182816 168.444275,268.635895 
	C175.969772,259.487396 182.505463,250.055695 190.399155,241.751846 
	C198.186279,233.560074 206.001236,225.394730 214.632294,216.349792 
	C198.969589,220.495956 185.478973,225.896545 174.669052,236.744141 
	C175.506546,232.003036 178.797302,229.493820 181.977295,226.954239 
	C190.222855,220.369263 200.064682,217.188477 209.874008,213.892273 
	C214.733292,212.259445 219.974472,211.267853 223.906113,207.627899 
	C235.746735,196.665695 247.995972,186.183960 261.263123,175.724548 
	C257.549927,176.743378 254.594345,177.683121 251.579666,178.359344 
	C237.941452,181.418549 224.295502,184.444794 210.632065,187.388870 
	C206.673996,188.241745 203.641388,189.989609 201.632355,193.721115 
	C198.745636,199.082809 194.121231,203.039627 189.690094,207.066345 
	C187.904099,208.689377 185.913437,210.546783 181.825409,209.910355 
	C189.512100,204.357971 195.598907,198.687195 199.668930,190.749649 
	C190.665054,193.310333 182.933914,198.073364 174.524887,201.203522 
	C188.078766,189.632950 204.801636,185.329742 222.260635,181.075562 
	C215.951355,177.968750 209.618759,179.213608 204.047806,176.901764 
	C210.140869,174.900772 216.246140,175.177887 221.941086,177.411407 
	C227.903519,179.749847 233.549561,179.437698 239.396454,177.594116 
	C240.819763,177.145355 242.308807,176.896835 243.775864,176.596420 
	C261.306030,173.006622 277.291779,166.258926 290.602509,153.640701 
	C280.556366,150.218079 270.215576,151.181183 259.854034,151.639877 
	C260.206085,149.629242 261.409454,149.791946 262.293121,149.513321 
	C271.205475,146.703278 280.088531,147.528366 288.882935,149.986877 
	C292.984680,151.133499 296.486328,150.707916 300.281403,148.505844 
	C307.907501,144.080872 315.855103,140.209961 324.340424,135.797058 
M391.510742,218.953506 
	C393.761841,219.813339 396.048187,221.690903 398.279877,219.019684 
	C400.729950,216.087112 403.804718,216.665634 407.013306,217.094604 
	C410.704071,217.588043 414.334991,219.302139 418.192841,218.118530 
	C416.691986,205.018204 407.966156,181.517685 399.091644,176.818329 
	C398.584198,184.493301 401.413513,191.498825 403.351685,198.997040 
	C400.611816,198.411209 400.311127,196.791168 399.780151,195.469360 
	C397.341705,189.399261 395.799347,183.116669 395.711517,176.542313 
	C395.681976,174.333710 395.715637,172.244141 393.487640,170.850815 
	C387.130981,166.875488 380.516052,163.544525 372.629700,161.757843 
	C371.917786,175.209778 376.684174,186.807861 383.475006,198.577805 
	C379.724701,198.076752 379.140045,196.160339 378.164795,194.701202 
	C372.261475,185.868729 369.544220,175.936584 369.007446,165.503693 
	C368.782837,161.137878 366.888428,159.386093 363.139282,158.210312 
	C353.181763,155.087524 344.587311,150.022263 339.639648,140.235458 
	C337.698517,141.409592 337.074158,143.225021 336.349915,144.833481 
	C332.565857,153.237549 327.686188,162.389511 332.661316,171.054749 
	C341.188965,185.907333 345.859283,203.171265 359.370575,215.058945 
	C363.049744,218.295990 364.799133,222.992661 366.480774,227.550873 
	C367.028198,229.034744 368.109222,230.502777 366.422516,232.834961 
	C362.649689,225.599731 359.821808,218.040771 352.502899,213.062943 
	C355.461334,224.664337 355.818329,235.811005 352.606934,247.028687 
	C351.885101,233.709503 352.308014,220.359436 347.246552,207.611526 
	C342.252472,195.033234 334.303375,184.179504 327.919556,171.514084 
	C327.539551,172.952789 327.292358,173.542892 327.236786,174.150528 
	C326.236633,185.077927 325.717987,196.074310 324.136475,206.915909 
	C322.808533,216.019165 324.285522,224.368973 327.629425,232.718796 
	C330.702332,240.391876 331.908478,248.452347 331.288635,256.721710 
	C331.069611,259.643585 331.190613,262.782257 327.497345,265.860992 
	C328.304138,258.440704 328.524902,252.153595 327.654266,245.923691 
	C326.796692,239.787521 325.072296,233.911682 321.456696,227.582733 
	C317.094940,251.122284 309.269470,272.404236 298.824524,293.640656 
	C302.382324,291.291779 305.001099,289.142212 307.961639,287.688751 
	C316.186584,283.650818 322.978149,276.970276 332.702698,275.550629 
	C337.685486,274.823242 340.699371,269.855286 344.200043,266.313507 
	C345.703522,264.792419 347.062195,262.555023 349.506592,263.147675 
	C353.356171,264.080994 355.096313,261.605072 356.691376,259.116913 
	C358.754822,255.898193 360.500549,252.469223 362.274536,249.074036 
	C363.315887,247.080978 364.464722,245.250397 366.866974,244.884598 
	C369.716156,244.450775 371.058990,242.441956 372.258514,240.171661 
	C374.767639,235.422729 373.955261,230.438507 373.216064,225.506592 
	C372.866302,223.173080 372.558960,220.912521 373.141815,218.585068 
	C374.728241,212.250031 378.859558,210.548004 384.297974,214.077530 
	C386.531494,215.527069 388.681915,217.104645 391.510742,218.953506 
M314.466003,82.664101 
	C304.318573,67.845894 287.404602,60.550804 275.581482,46.607388 
	C274.767395,51.536404 275.320190,56.364693 273.192963,59.135395 
	C270.074066,63.197784 269.948364,66.296356 272.141479,70.364876 
	C273.342194,72.592339 274.192352,75.185616 272.097870,77.344688 
	C270.211334,79.289406 267.758057,78.614517 265.503479,77.918373 
	C258.838684,75.860512 252.010300,76.060272 245.189301,76.486275 
	C242.737061,76.639427 239.941513,76.827682 238.747116,79.505432 
	C237.459396,82.392372 234.928650,82.706322 232.394028,83.630875 
	C222.831757,87.118980 211.356720,86.849785 205.921997,98.465736 
	C204.254379,102.030037 199.641800,104.278961 196.239853,106.954865 
	C191.003204,111.073906 185.647507,115.041580 179.671661,119.583160 
	C201.719421,123.354286 222.026688,118.391144 243.508179,115.434021 
	C233.846649,109.008957 224.512878,104.872765 214.320358,102.554520 
	C223.348923,101.082024 231.069809,104.324234 238.581223,108.382256 
	C243.104507,110.825966 247.320770,114.472672 252.584808,114.654854 
	C265.003632,115.084648 277.322937,116.315262 289.647003,118.357704 
	C278.958740,103.096657 264.163055,93.269638 248.394943,84.480949 
	C254.676605,84.961945 259.528290,88.563446 265.569580,90.986771 
	C264.328491,87.675018 263.273895,84.860970 262.219330,82.046913 
	C262.719604,81.703720 263.219879,81.360535 263.720123,81.017342 
	C266.976990,90.146324 273.009521,96.786255 280.130798,102.822586 
	C287.182251,108.799683 292.413879,117.054405 301.779724,120.031197 
	C310.656677,122.852600 319.598602,125.528618 329.986237,126.897385 
	C325.066254,116.735001 324.804443,106.727051 321.949707,97.341537 
	C320.268646,91.814751 316.952820,89.068764 311.442810,88.221046 
	C301.370667,86.671448 292.460236,82.184891 283.954254,76.827080 
	C281.989288,75.589386 279.819702,74.337791 279.129395,71.611496 
	C279.860260,71.546288 280.249176,71.384552 280.465424,71.513168 
	C281.749573,72.276840 282.988586,73.115906 284.252197,73.914711 
	C292.935913,79.404297 302.247345,83.299995 312.439392,84.908188 
	C313.622070,85.094803 315.952240,86.454582 314.466003,82.664101 
M463.077454,160.632812 
	C461.068512,162.013779 458.607605,162.783264 456.795441,165.352051 
	C463.642273,167.716019 469.781433,171.047379 474.582031,176.192230 
	C476.927307,178.705704 479.050507,179.048462 482.062073,177.973328 
	C491.997131,174.426590 502.048309,174.819275 511.989929,177.837662 
	C515.569946,178.924606 518.903015,180.824524 522.603455,182.466415 
	C527.369934,175.223969 532.963623,169.151443 540.239624,165.056839 
	C539.765503,162.094543 538.161438,160.369370 536.860291,158.462341 
	C532.299072,151.777451 529.027710,144.475876 527.686768,136.506409 
	C524.824768,119.496941 528.387573,103.433037 535.476562,87.975166 
	C537.451172,83.669510 539.407227,79.355331 541.696167,74.333267 
	C530.586243,74.427689 522.460571,70.547867 517.963379,60.477982 
	C508.964661,69.739670 501.917511,79.078537 497.392365,90.252190 
	C492.687347,101.870079 489.571808,113.959602 486.234741,125.988518 
	C482.391479,139.841949 476.055328,152.022430 463.077454,160.632812 
M314.267487,62.658165 
	C312.811005,78.148865 324.645599,88.998856 327.909576,103.288879 
	C335.334473,91.021240 338.146362,78.113724 338.024841,63.814976 
	C340.654205,65.820755 340.207428,67.603249 340.323151,69.173531 
	C340.718231,74.536545 339.761444,79.773087 338.858582,85.033089 
	C337.884369,90.708748 335.041382,95.663223 333.161987,100.984055 
	C330.481323,108.573349 329.501129,116.160400 334.784210,124.827911 
	C336.983765,114.804993 342.987518,108.971336 349.008301,103.180359 
	C352.671112,99.657333 355.528412,95.618813 357.453033,90.930092 
	C357.999878,89.597900 359.024445,88.156395 357.589417,86.785690 
	C354.937103,84.252258 355.282440,81.132683 355.603333,77.927475 
	C356.025208,73.713768 354.927917,69.663177 353.962585,65.615685 
	C353.606934,64.124443 353.108459,62.428753 351.328339,62.388096 
	C348.456604,62.322498 347.372131,60.305717 346.096924,58.354771 
	C344.075012,55.261333 341.472565,52.671761 338.793854,50.169956 
	C337.594574,49.049877 336.188080,47.656784 334.406769,48.800850 
	C331.980438,50.359192 330.061462,49.207111 327.891632,48.242100 
	C321.498901,45.398945 314.854431,42.310989 307.853729,43.087822 
	C301.381927,43.805962 294.958893,44.397030 288.464966,44.386971 
	C285.333099,44.382122 282.264709,44.687023 278.761627,45.785683 
	C288.171295,56.923584 300.745728,63.402184 311.426422,73.101669 
	C312.896210,64.763641 309.619080,58.022797 306.627380,49.870914 
	C311.659485,53.592255 312.516113,57.923538 314.267487,62.658165 
M412.197144,165.100861 
	C413.204895,166.210571 415.387970,166.339783 415.110413,169.133804 
	C407.285156,166.533478 400.059052,161.564896 390.435059,164.074280 
	C408.209717,174.319702 415.021210,191.098480 420.400909,208.877151 
	C420.448486,201.512695 422.522461,194.329239 420.889587,187.006302 
	C420.400482,184.813004 419.922577,181.775497 421.738129,180.296524 
	C426.370605,176.522888 424.479431,172.211960 423.357300,168.003021 
	C422.504028,164.802490 421.037506,161.768860 419.916077,158.635117 
	C419.299927,156.913406 418.478180,154.981171 420.607971,153.737457 
	C423.117432,152.272018 422.259216,150.486374 421.368744,148.628281 
	C419.283569,144.277298 415.785736,141.231979 411.979584,138.459442 
	C410.244415,137.195465 408.111603,136.020874 408.828400,133.344162 
	C409.575226,130.555145 407.810944,129.872833 405.800385,129.200287 
	C401.617188,127.801003 397.262085,127.888351 392.946259,127.720322 
	C390.728333,127.633980 388.255493,127.714149 387.141632,125.605743 
	C385.585327,122.659798 383.569611,123.149323 381.290771,124.106468 
	C378.531494,125.265381 375.678131,126.287148 373.099823,127.774429 
	C364.265167,132.870590 355.959717,139.287643 344.640533,137.600479 
	C347.124603,145.000916 351.421936,148.034317 358.178589,147.661072 
	C361.717407,147.465591 365.006409,146.216797 368.338409,145.189209 
	C377.172821,142.464630 386.175018,141.072601 395.421936,141.809418 
	C400.308044,142.198761 405.073608,143.142273 409.199829,146.249115 
	C400.763458,145.860306 392.469116,144.377579 384.062744,145.327011 
	C375.557800,146.287567 367.674347,149.334305 358.282196,152.140076 
	C366.554016,154.933395 373.541534,157.101837 380.370422,159.689041 
	C383.279205,160.791092 385.983887,161.441360 389.045959,160.708221 
	C397.123169,158.774414 404.537079,160.767136 412.197144,165.100861 
M262.676636,405.852112 
	C261.029938,402.355011 258.759064,399.241638 256.179413,396.433624 
	C252.193100,392.094421 247.346664,388.657227 241.227020,390.830597 
	C235.133194,392.994843 232.683151,398.364197 232.114014,404.584076 
	C232.008209,405.740326 232.023605,406.912140 232.049088,408.075317 
	C232.458542,426.775970 240.828766,441.864929 253.504211,454.923981 
	C255.770630,457.259003 257.980591,459.845032 261.999023,461.264526 
	C269.441742,442.997009 270.102417,424.888153 262.676636,405.852112 
M370.313599,118.855026 
	C363.297760,122.998306 356.485931,127.415939 349.498718,133.618500 
	C356.242645,132.675659 360.707123,129.784988 365.281586,127.092751 
	C371.017914,123.716705 376.791748,120.390465 383.485840,119.188805 
	C385.146332,118.890732 387.280334,118.252213 388.295410,119.452248 
	C392.204498,124.073631 397.755310,122.584007 402.564270,123.625587 
	C406.249298,124.423721 409.831787,126.680763 413.743988,125.562576 
	C427.319458,121.682404 440.682739,122.548836 453.945801,126.954529 
	C455.374725,127.429184 456.739227,127.915405 458.239746,127.005783 
	C461.469025,125.048225 464.759155,123.191101 467.986694,121.314789 
	C468.016266,119.822281 466.951660,119.149582 466.099548,118.424431 
	C455.222382,109.168045 442.641022,104.037331 428.383545,103.261948 
	C407.615326,102.132500 388.592285,107.760971 370.313599,118.855026 
M786.848511,397.738831 
	C793.586975,397.980774 800.080444,396.894684 806.364685,394.389557 
	C808.582092,393.505646 810.179077,392.200317 810.402161,389.810913 
	C811.019958,383.194061 811.752197,376.559387 809.650574,370.032867 
	C805.833374,358.178833 790.882019,350.888275 779.713318,355.454681 
	C771.151550,358.955200 766.030151,369.319794 767.363953,380.446991 
	C768.468994,389.665131 775.097595,395.808136 786.848511,397.738831 
M786.389038,442.880493 
	C789.750916,440.944489 792.263672,437.989441 795.202209,435.545502 
	C813.259644,420.527557 821.853577,401.508179 819.694763,377.895569 
	C817.747253,356.594208 805.408630,342.888062 780.947937,346.608246 
	C770.473694,348.201263 763.814941,355.199554 760.346436,364.957275 
	C756.434692,375.962097 758.004517,386.386414 765.493530,395.451141 
	C773.172424,404.745514 787.373718,408.102356 799.763367,403.745239 
	C802.611267,402.743713 806.414856,402.987579 808.313660,398.554108 
	C803.181580,400.684296 798.436829,401.266693 793.730591,402.031311 
	C781.027588,404.095215 767.715149,396.546112 764.131897,385.259094 
	C759.998352,372.238434 765.447266,357.724670 776.581177,352.099457 
	C792.429138,344.092590 814.050354,356.719757 815.132996,375.185730 
	C816.881836,405.014557 803.369873,427.174042 778.645813,442.647858 
	C762.048462,453.035461 743.208008,454.304321 724.155762,453.755676 
	C714.084595,453.465637 704.293335,455.286011 694.706665,458.251312 
	C697.979675,458.023193 701.156494,457.153076 704.391052,456.764893 
	C707.623718,456.376984 710.945923,454.761383 715.387024,457.024933 
	C708.253723,459.258881 701.672974,459.470795 695.926392,462.614655 
	C711.671387,457.949280 727.925232,458.969604 743.963745,458.110565 
	C759.507385,457.277985 772.989624,451.429199 786.389038,442.880493 
M323.001770,477.905304 
	C328.513153,475.819916 334.037689,473.760925 339.343475,470.272644 
	C336.927338,469.000275 335.651093,470.497803 334.277130,471.129852 
	C319.253387,478.040741 304.025726,480.745514 287.265442,477.604675 
	C253.475693,471.272644 226.297791,438.511139 227.713120,403.997437 
	C228.033295,396.190125 231.883514,390.408051 238.946350,386.998322 
	C245.256012,383.952209 250.604446,386.727081 255.627594,390.312469 
	C257.362183,391.550537 258.945038,393.119690 260.268677,394.796875 
	C275.200989,413.717529 274.675964,434.720093 268.395264,456.448792 
	C267.646545,459.039093 267.526947,459.004517 270.181335,461.140991 
	C272.840820,453.731018 274.419800,446.072113 275.300598,438.307709 
	C277.302704,420.658325 273.783295,404.415649 261.750793,390.814301 
	C255.778519,384.063385 248.174301,380.179169 238.999008,382.858368 
	C229.523270,385.625275 225.498306,393.241241 224.384033,402.438202 
	C223.372314,410.788818 224.439896,419.023102 226.823257,427.114014 
	C233.375641,449.357605 247.925674,464.877747 267.767609,475.918945 
	C278.631622,481.964294 290.438324,484.499207 302.790314,484.358215 
	C316.841705,484.197815 329.877045,479.791992 342.974915,474.045654 
	C335.076630,474.694122 328.775299,480.315033 320.824982,479.238953 
	C321.350098,478.883057 321.875183,478.527130 323.001770,477.905304 
M445.066376,159.390335 
	C448.265869,163.728699 451.236420,160.033844 454.177643,159.029633 
	C462.196350,156.291840 467.836090,150.646942 472.832214,143.824738 
	C471.275970,142.627991 470.094604,141.748993 468.944580,140.830734 
	C454.197296,129.055496 437.422729,125.865341 419.158997,129.153549 
	C415.073456,129.889114 414.019440,132.550980 416.659607,135.312698 
	C425.111420,144.153656 432.035736,154.812897 445.066376,159.390335 
M641.549133,53.011238 
	C633.405884,52.888882 625.610229,54.614983 618.409729,58.293430 
	C605.680298,64.796333 595.442200,73.759377 591.951782,88.369171 
	C590.343994,95.099167 590.776855,101.925690 596.091614,106.975586 
	C600.231689,110.909271 605.575073,112.363426 611.379517,110.541214 
	C618.498169,108.306396 624.489258,100.452827 625.140381,92.471649 
	C625.737305,85.154037 620.822571,75.885681 614.687134,72.696022 
	C613.101135,71.871506 611.638184,71.241859 610.653748,73.958229 
	C617.898193,78.119240 621.954407,84.200317 621.203796,92.771454 
	C620.423767,101.678574 613.035950,108.341621 605.742004,106.880203 
	C597.409302,105.210663 593.172363,97.545700 595.395142,88.508347 
	C597.608154,79.510185 603.043396,72.663086 609.957703,66.986198 
	C618.895996,59.647530 629.579956,56.445267 640.938843,55.946774 
	C655.699646,55.298988 669.593201,57.745197 679.680969,70.065903 
	C685.781067,77.516235 685.487000,86.821312 679.202026,93.713898 
	C675.223877,98.076614 671.007507,99.288376 666.790466,97.280891 
	C661.933289,94.968704 659.555542,90.017403 660.312439,84.459358 
	C661.289978,77.280830 666.027405,72.824341 671.285339,68.651237 
	C663.713501,71.529732 659.575378,77.429184 657.258789,84.788071 
	C655.333984,90.902313 657.561584,97.097031 662.654846,100.631004 
	C667.481384,103.979897 673.625122,103.483116 678.891907,99.594429 
	C692.692261,89.404984 688.156738,71.592697 677.251343,63.236221 
	C667.025513,55.400547 655.203308,52.659828 641.549133,53.011238 
M779.541809,478.360870 
	C783.392517,490.115051 777.777710,501.764679 766.403809,506.349884 
	C757.247009,510.041321 748.700867,508.372101 740.564819,503.805542 
	C735.352173,500.879791 730.653809,497.051666 725.531128,493.947815 
	C719.569580,490.335754 713.216431,487.813354 705.958191,488.455719 
	C705.866821,491.189758 707.249329,491.508057 708.843140,491.708344 
	C717.022522,492.736053 723.921082,496.562927 730.508545,501.299316 
	C734.411865,504.105896 738.543457,506.735840 742.892395,508.756531 
	C758.737671,516.118774 776.506409,510.028656 782.640625,495.399506 
	C786.859070,485.339081 782.633423,472.179810 773.858643,468.051239 
	C761.423889,462.200653 747.185669,471.972046 746.349854,486.988129 
	C746.001160,493.252136 747.993103,498.647888 752.508667,503.012238 
	C751.062317,497.686554 749.266113,492.547943 749.660095,486.900269 
	C750.221313,478.855011 755.578308,471.928131 762.998291,470.053223 
	C769.718750,468.355072 774.964661,470.819916 779.541809,478.360870 
M766.643127,473.794525 
	C760.047058,474.408173 756.167236,478.283844 754.170105,484.312134 
	C752.176575,490.329620 754.255066,495.653412 757.002380,500.923187 
	C758.477356,503.752289 760.483093,504.121277 763.185364,503.132050 
	C769.688293,500.751495 774.158691,496.276489 776.277710,489.746429 
	C778.685242,482.326965 774.738220,475.497101 766.643127,473.794525 
M700.393066,499.407196 
	C703.553833,509.229523 701.224609,519.042542 694.452026,524.437439 
	C687.148315,530.255371 676.243164,527.590515 673.415649,519.106628 
	C671.574402,513.582214 674.282654,509.053650 677.613403,504.964233 
	C681.279297,500.463318 685.952576,497.074615 691.719849,493.799988 
	C681.843445,493.926239 671.773438,503.675018 669.795044,514.056580 
	C668.413452,521.306335 672.363708,527.813843 679.413757,529.901917 
	C690.376831,533.149048 702.393311,525.026672 704.578979,512.455994 
	C708.116150,492.112061 696.754028,481.475677 676.897644,479.450287 
	C672.898376,479.042328 668.458801,478.241974 664.807617,481.421448 
	C668.015015,480.286499 671.143494,481.315674 674.182312,481.812225 
	C685.241943,483.619446 695.176941,487.371948 700.393066,499.407196 
M455.039154,99.479576 
	C419.220154,83.930656 376.747925,102.400330 358.492889,119.134003 
	C375.041229,110.423988 391.406250,101.725670 410.314331,99.137413 
	C429.922211,96.453354 448.066071,99.287476 464.509735,110.777298 
	C465.775848,111.662010 466.854889,113.063782 469.218781,113.034096 
	C463.363342,107.998222 456.709778,104.990837 451.007660,100.499229 
	C459.617401,101.059921 465.684418,106.946335 472.675049,110.888290 
	C468.016327,105.597626 462.198425,102.191345 455.039154,99.479576 
M200.460922,393.998291 
	C194.895065,402.996368 194.474411,412.141357 199.872513,421.338745 
	C204.320343,428.916962 216.665253,435.870605 224.938568,435.619202 
	C224.686844,434.366364 223.598480,434.345856 222.666199,434.068756 
	C203.086792,428.249847 190.578781,402.888153 210.531769,384.956482 
	C214.523163,381.369446 217.667175,377.089996 220.564423,372.597137 
	C228.020996,361.033875 222.133240,343.838867 213.021423,340.156708 
	C217.107697,343.806976 220.050598,347.845154 221.173615,352.850555 
	C223.459610,363.039459 219.538406,371.426453 212.923691,378.789856 
	C208.697235,383.494720 204.425430,388.141785 200.460922,393.998291 
M680.264954,521.449280 
	C687.229431,524.274536 691.829712,522.698120 695.196838,516.319031 
	C697.728394,511.522980 698.083069,506.597656 696.274841,501.450195 
	C695.362549,498.853485 694.039246,498.037994 691.430481,499.323822 
	C686.069031,501.966461 681.736938,505.709808 678.882812,510.969360 
	C677.034546,514.375305 676.361694,517.878540 680.264954,521.449280 
M204.705750,503.841705 
	C226.346741,508.272766 241.737411,503.063293 257.918640,482.804626 
	C251.668472,483.678925 248.180237,489.045349 243.539597,492.743378 
	C225.421066,507.181763 199.269379,505.700592 183.664322,489.187225 
	C180.225616,485.548401 177.238403,481.489899 176.948380,476.163055 
	C176.852325,474.398804 177.312057,472.619568 179.256866,472.227264 
	C181.574112,471.759796 182.321198,473.666809 183.021866,475.411133 
	C183.677338,477.042908 182.621033,479.011292 184.301956,480.974030 
	C185.158096,477.804474 184.979355,475.159546 183.882004,472.509918 
	C183.054871,470.512726 181.703247,468.915436 179.514816,468.943573 
	C177.115143,468.974396 175.659164,470.709015 174.855423,472.889923 
	C173.770493,475.833893 174.895615,478.493530 176.195251,481.011627 
	C182.148926,492.547058 191.282181,500.254395 204.705750,503.841705 
M610.145569,79.234566 
	C608.102661,78.148705 605.973267,77.524261 604.355713,79.738609 
	C600.966797,84.377846 598.525513,89.388191 599.235596,95.395248 
	C599.677917,99.136269 602.035217,101.455261 605.359558,102.481369 
	C608.699524,103.512291 611.508911,102.049561 613.632141,99.324257 
	C618.594543,92.954796 617.515747,85.532249 610.145569,79.234566 
M664.500977,84.886009 
	C664.201965,88.697533 665.278442,92.166077 669.045776,93.366348 
	C672.701172,94.530975 675.297119,91.884224 677.258301,89.071518 
	C681.207825,83.407074 680.501587,76.856133 675.343933,71.872131 
	C670.159912,74.502121 666.508606,78.496338 664.500977,84.886009 
M553.015137,97.506760 
	C564.344360,86.442268 576.556152,76.845016 592.608276,73.590240 
	C594.466980,73.213356 595.667419,72.139931 596.049927,70.095535 
	C576.070312,69.206184 541.304626,99.841476 535.280762,118.741096 
	C540.445374,111.248886 546.388916,104.554779 553.015137,97.506760 
M844.103455,356.701660 
	C848.771851,342.342987 846.917908,326.513336 854.059998,312.662933 
	C843.303162,338.227997 842.308655,367.336884 825.071228,390.477570 
	C834.639587,381.279663 840.298096,369.959930 844.103455,356.701660 
M523.770569,59.073376 
	C527.356934,67.523911 536.548523,71.208809 545.042175,67.504440 
	C544.129211,64.826523 542.790710,62.372318 540.942810,60.236294 
	C537.114807,55.811539 527.460938,54.810131 523.770569,59.073376 
M141.230484,507.365509 
	C155.664200,510.417877 175.909149,501.704620 177.220963,490.814117 
	C167.833755,500.432343 158.422012,508.509918 144.434906,506.363770 
	C129.941467,504.139923 122.881187,494.896881 120.553848,481.094116 
	C120.265518,493.651917 127.405060,502.867645 141.230484,507.365509 
M764.195312,515.582153 
	C759.914917,517.685669 763.961975,518.564087 764.958069,519.074707 
	C772.379883,522.879333 780.033264,526.244202 788.356812,527.433289 
	C801.354309,529.290161 813.254578,526.612793 823.518799,518.033325 
	C814.306763,524.430603 804.059326,527.080200 792.942261,526.156433 
	C782.588806,525.296143 773.365295,521.251526 764.195312,515.582153 
M472.425720,138.756516 
	C474.103119,140.899887 475.429199,140.250839 476.564209,138.225006 
	C478.900543,134.055176 476.220734,130.894379 474.191071,127.805649 
	C472.362152,125.022339 469.740112,126.419174 467.532471,127.484077 
	C465.982483,128.231735 463.956970,128.423706 463.098663,130.522751 
	C465.682373,133.552048 469.775665,134.849503 472.425720,138.756516 
M440.893005,161.949677 
	C437.367920,159.492401 433.686707,157.339310 429.606140,155.905106 
	C428.178192,155.403229 427.068542,155.780029 425.950073,156.645584 
	C424.505890,157.763153 425.275085,158.954773 425.680450,160.199448 
	C427.343994,165.307266 435.747894,166.466171 440.893005,161.949677 
M713.670532,65.847420 
	C704.448059,61.780533 695.086670,59.433891 685.228271,63.267097 
	C693.012756,61.695274 700.683289,62.371662 708.232971,64.880234 
	C714.113403,66.834167 719.251770,70.260979 724.610229,73.250038 
	C729.704163,76.091530 735.442993,77.663223 741.109619,77.357590 
	C730.164795,76.113663 722.738464,70.065491 713.670532,65.847420 
z"/>
<path fill="#000000" opacity="1.000000" stroke="none" 
	d="
M612.458740,221.516342 
	C605.850342,212.302307 599.808716,203.107346 590.677856,196.520874 
	C587.278992,194.069168 583.740540,191.955917 580.049438,190.028931 
	C578.939209,189.449326 577.192261,188.968140 577.877014,187.236404 
	C578.678040,185.210327 580.401062,186.049454 581.694702,186.686264 
	C591.894470,191.707397 599.958374,199.204224 607.103760,207.975815 
	C626.945984,232.333878 634.829163,261.362823 640.300842,291.400665 
	C641.792786,299.591217 642.691162,307.841248 643.165771,316.142487 
	C643.218079,317.057343 643.421997,318.179565 641.720947,318.980713 
	C639.028076,313.317871 639.690857,307.117615 638.763672,301.265686 
	C634.974792,277.352539 629.541626,253.918198 618.985229,231.962219 
	C617.267761,228.390106 614.798828,225.179321 612.458740,221.516342 
z"/>
<path fill="#000000" opacity="1.000000" stroke="none" 
	d="
M644.341797,343.998108 
	C647.516479,343.354126 646.957458,345.693512 647.338684,347.293152 
	C649.350830,355.736298 647.409485,364.109619 646.662109,372.467957 
	C646.311279,376.391876 647.143433,380.691162 643.996643,385.569061 
	C642.768982,370.913910 645.738281,357.594086 644.341797,343.998108 
z"/>
<path fill="#000000" opacity="1.000000" stroke="none" 
	d="
M458.190918,227.167694 
	C447.161438,251.422470 444.845245,276.676422 445.766144,302.563873 
	C446.410339,320.673187 447.545135,338.703552 450.438232,356.601837 
	C450.617706,357.712311 451.008545,358.917511 449.394592,359.920105 
	C447.025055,358.226898 447.015137,355.445251 446.740967,353.007874 
	C443.709595,326.059540 441.344055,299.144073 443.392792,271.907776 
	C445.003540,250.494064 451.317749,230.906799 461.867523,212.464188 
	C463.938690,208.843460 466.373352,205.453629 469.685211,202.829941 
	C470.630859,202.080765 471.856110,201.639145 472.736633,202.936279 
	C473.411194,203.929932 472.850037,204.771576 472.045837,205.526611 
	C465.704742,211.479965 462.186462,219.255447 458.190918,227.167694 
z"/>
<path fill="#000000" opacity="1.000000" stroke="none" 
	d="
M531.020386,452.200806 
	C536.100098,431.619751 536.401306,410.803467 538.821411,389.029510 
	C546.597778,402.551727 529.470398,489.047791 518.189453,497.951538 
	C515.504517,496.043304 517.445190,494.046478 518.325073,492.394745 
	C524.981628,479.899933 528.370972,466.394257 531.020386,452.200806 
z"/>
<path fill="#000000" opacity="1.000000" stroke="none" 
	d="
M365.566650,393.294617 
	C360.988831,366.460236 356.298828,340.060211 363.632996,313.222900 
	C359.942596,378.770386 371.743500,439.886688 414.742432,492.093414 
	C411.746429,493.757446 410.634033,491.534546 409.353027,490.285828 
	C398.167877,479.382111 391.252319,465.727081 384.642426,451.856537 
	C375.794983,433.290619 368.712128,414.165802 365.566650,393.294617 
z"/>
<path fill="#000000" opacity="1.000000" stroke="none" 
	d="
M678.130859,187.847809 
	C675.858887,185.783752 673.182312,184.597534 671.787354,181.830368 
	C674.555725,179.829849 676.139404,181.639053 677.784241,182.841080 
	C684.478210,187.733017 689.421326,194.120544 693.929749,201.023483 
	C711.960938,228.631104 721.713135,259.075012 725.387085,291.629181 
	C726.770630,303.888000 727.592102,316.170685 724.314575,328.304382 
	C723.952637,329.644196 724.019287,331.295624 722.100769,332.175598 
	C720.701050,328.217224 722.373108,324.553558 722.833618,320.927216 
	C724.688293,306.321960 721.956665,292.116608 719.691467,277.827209 
	C715.269226,249.930573 705.304688,224.250778 689.626465,200.752441 
	C686.447754,195.988190 682.684326,191.825745 678.130859,187.847809 
z"/>
<path fill="#000000" opacity="1.000000" stroke="none" 
	d="
M718.254395,359.682373 
	C718.892090,358.199738 718.527405,356.561646 720.231506,356.127991 
	C722.056763,360.375671 717.465637,383.745422 713.075256,389.487366 
	C712.817932,379.381134 716.472229,369.865723 718.254395,359.682373 
z"/>
<path fill="#000000" opacity="1.000000" stroke="none" 
	d="
M519.318604,136.699097 
	C519.893311,141.943909 520.628906,146.698318 522.379700,151.228973 
	C523.600647,154.388535 523.611511,157.548141 522.840576,161.175110 
	C511.673004,147.452972 516.673767,96.996178 530.430298,85.859314 
	C523.966492,102.075920 519.270325,118.663559 519.318604,136.699097 
z"/>
<path fill="#000000" opacity="1.000000" stroke="none" 
	d="
M489.187073,161.012726 
	C486.272217,165.163620 484.216736,169.597763 480.079102,172.200516 
	C477.968414,170.672745 478.542664,169.178391 479.526917,168.046982 
	C490.196289,155.782669 492.894257,140.510727 495.974365,125.320297 
	C496.860107,120.952049 497.473846,116.248779 501.523438,113.079247 
	C497.772919,129.050323 497.463623,145.845032 489.187073,161.012726 
z"/>
<path fill="#000000" opacity="1.000000" stroke="none" 
	d="
M522.810547,81.977127 
	C523.753357,80.207420 524.368469,78.566971 527.864441,78.397354 
	C519.298523,97.116432 511.586823,115.565918 509.955017,135.935715 
	C508.299225,131.213226 508.369385,126.500443 509.255219,121.791473 
	C511.849304,108.001686 516.687744,94.963173 522.810547,81.977127 
z"/>
<path fill="#000000" opacity="1.000000" stroke="none" 
	d="
M510.038208,165.587860 
	C509.080841,157.152512 506.635315,149.136322 510.078278,140.996597 
	C510.575714,152.785461 512.849243,164.271408 515.308472,175.778534 
	C511.303589,173.466187 511.661774,169.286011 510.038208,165.587860 
z"/>
<path fill="#000000" opacity="1.000000" stroke="none" 
	d="
M537.793091,147.851105 
	C538.244263,138.511353 546.540405,129.389694 556.725464,127.081024 
	C556.663696,128.923477 555.253113,129.718506 554.210571,130.421341 
	C548.152771,134.505417 543.362183,139.596436 540.602539,146.470856 
	C540.332764,147.142868 539.503906,147.590424 538.586121,148.204620 
	C538.237732,148.267059 537.943176,147.987778 537.793091,147.851105 
z"/>
</svg>